<?xml version="1.0" encoding="UTF-8" standalone="no"?>
<!-- Created with Inkscape (http://www.inkscape.org/) -->

<svg
   xmlns:dc="http://purl.org/dc/elements/1.1/"
   xmlns:cc="http://creativecommons.org/ns#"
   xmlns:rdf="http://www.w3.org/1999/02/22-rdf-syntax-ns#"
   xmlns:svg="http://www.w3.org/2000/svg"
   xmlns="http://www.w3.org/2000/svg"
   xmlns:xlink="http://www.w3.org/1999/xlink"
   xmlns:sodipodi="http://sodipodi.sourceforge.net/DTD/sodipodi-0.dtd"
   xmlns:inkscape="http://www.inkscape.org/namespaces/inkscape"
   width="64"
   height="64"
   id="svg3809"
   version="1.1"
   inkscape:version="0.91 r13725"
   sodipodi:docname="mouse.svg">
  <defs
     id="defs3811">
    <linearGradient
       id="linearGradient4369"
       inkscape:collect="always">
      <stop
         id="stop4371"
         offset="0"
         style="stop-color:#253440;stop-opacity:1" />
      <stop
         id="stop4373"
         offset="1"
         style="stop-color:#566069;stop-opacity:0.46327683" />
    </linearGradient>
    <linearGradient
       inkscape:collect="always"
       id="linearGradient4355">
      <stop
         style="stop-color:#283845;stop-opacity:1"
         offset="0"
         id="stop4357" />
      <stop
         style="stop-color:#4e575f;stop-opacity:1"
         offset="1"
         id="stop4359" />
    </linearGradient>
    <linearGradient
       inkscape:collect="always"
       id="linearGradient4341">
      <stop
         style="stop-color:#18222a;stop-opacity:1"
         offset="0"
         id="stop4343" />
      <stop
         style="stop-color:#566069;stop-opacity:0.46327683"
         offset="1"
         id="stop4345" />
    </linearGradient>
    <linearGradient
       inkscape:collect="always"
       id="linearGradient4303-5">
      <stop
         style="stop-color:#197cf1;stop-opacity:1"
         offset="0"
         id="stop4305-4" />
      <stop
         style="stop-color:#21c9fb;stop-opacity:1"
         offset="1"
         id="stop4307-2" />
    </linearGradient>
    <linearGradient
       gradientUnits="userSpaceOnUse"
       y2="3"
       x2="16.000011"
       y1="29.999729"
       x1="16.000011"
       id="linearGradient4313"
       xlink:href="#linearGradient4341"
       inkscape:collect="always" />
    <linearGradient
       gradientUnits="userSpaceOnUse"
       y2="12"
       x2="16.000011"
       y1="14"
       x1="16.000011"
       id="linearGradient4335"
       xlink:href="#linearGradient4303-5"
       inkscape:collect="always" />
    <linearGradient
       gradientUnits="userSpaceOnUse"
       y2="525.79797"
       x2="400.57144"
       y1="527.79797"
       x1="400.57144"
       id="linearGradient4337"
       xlink:href="#linearGradient4303-5"
       inkscape:collect="always" />
    <linearGradient
       gradientUnits="userSpaceOnUse"
       y2="24"
       x2="9"
       y1="18"
       x1="11"
       id="linearGradient4339"
       xlink:href="#linearGradient4341"
       inkscape:collect="always" />
    <linearGradient
       gradientUnits="userSpaceOnUse"
       y2="19"
       x2="9"
       y1="19"
       x1="7.0000119"
       id="linearGradient4353"
       xlink:href="#linearGradient4355"
       inkscape:collect="always" />
    <linearGradient
       gradientUnits="userSpaceOnUse"
       y2="19"
       x2="25.000011"
       y1="19"
       x1="24"
       id="linearGradient4367"
       xlink:href="#linearGradient4369"
       inkscape:collect="always" />
    <linearGradient
       gradientUnits="userSpaceOnUse"
       y2="520.79797"
       x2="400.57144"
       y1="524.79797"
       x1="400.57144"
       id="linearGradient4467"
       xlink:href="#linearGradient4341"
       inkscape:collect="always" />
    <linearGradient
       y2="7"
       x2="24"
       y1="15.999729"
       x1="24"
       gradientUnits="userSpaceOnUse"
       id="linearGradient4483"
       xlink:href="#linearGradient4303-5"
       inkscape:collect="always" />
  </defs>
  <sodipodi:namedview
     id="base"
     pagecolor="#ffffff"
     bordercolor="#666666"
     borderopacity="1.0"
     inkscape:pageopacity="0.0"
     inkscape:pageshadow="2"
     inkscape:zoom="11.313708"
     inkscape:cx="34.730484"
     inkscape:cy="35.906454"
     inkscape:document-units="px"
     inkscape:current-layer="layer1"
     showgrid="true"
     fit-margin-top="0"
     fit-margin-left="0"
     fit-margin-right="0"
     fit-margin-bottom="0"
     inkscape:snap-bbox="true"
     inkscape:window-width="1920"
     inkscape:window-height="1021"
     inkscape:window-x="-4"
     inkscape:window-y="0"
     inkscape:window-maximized="1"
     inkscape:showpageshadow="false"
     borderlayer="true"
     showguides="false">
    <inkscape:grid
       type="xygrid"
       id="grid3830"
       empspacing="5"
       visible="true"
       enabled="true"
       snapvisiblegridlinesonly="true"
       originx="21.000002"
       originy="20.999999" />
    <sodipodi:guide
       position="-2.265625e-06,9.9121092e-07"
       orientation="-64,0"
       id="guide4172" />
    <sodipodi:guide
       position="-2.265625e-06,64.000001"
       orientation="0,64"
       id="guide4174" />
    <sodipodi:guide
       position="63.999998,64.000001"
       orientation="64,0"
       id="guide4176" />
    <sodipodi:guide
       position="63.999998,9.9121092e-07"
       orientation="0,-64"
       id="guide4178" />
    <sodipodi:guide
       position="46.000002,3.999999"
       orientation="0,58"
       id="guide4182" />
    <sodipodi:guide
       position="18.000002,59.999999"
       orientation="0,-58"
       id="guide4186" />
    <sodipodi:guide
       position="4.000002,30.999999"
       orientation="52,0"
       id="guide4197" />
    <sodipodi:guide
       position="60.000002,52.999999"
       orientation="-52,0"
       id="guide4201" />
    <sodipodi:guide
       position="22.000002,32.999999"
       orientation="-24,0"
       id="guide4323" />
    <sodipodi:guide
       position="42.000002,33.999999"
       orientation="24,0"
       id="guide4327" />
    <sodipodi:guide
       position="41.000002,21.999999"
       orientation="0,24"
       id="guide4247" />
    <sodipodi:guide
       position="36.000002,41.999999"
       orientation="0,-24"
       id="guide4251" />
  </sodipodi:namedview>
  <metadata
     id="metadata3814">
    <rdf:RDF>
      <cc:Work
         rdf:about="">
        <dc:format>image/svg+xml</dc:format>
        <dc:type
           rdf:resource="http://purl.org/dc/dcmitype/StillImage" />
        <dc:title></dc:title>
      </cc:Work>
    </rdf:RDF>
  </metadata>
  <g
     inkscape:label="Layer 1"
     inkscape:groupmode="layer"
     id="layer1"
     transform="translate(-736.85718,-157.93361)">
    <g
       transform="matrix(2,0,0,2,-32.28568,-873.66239)"
       id="layer1-6"
       inkscape:label="Capa 1">
      <g
         id="g4283">
        <path
           id="path4296"
           transform="translate(384.57143,515.798)"
           d="M 15,2 14.96875,2.0625 A 2,2.5000131 0 0 1 15,2.5 2,2.5000131 0 0 1 14.597656,4 l 1.109375,0 A 3,3.5 0 0 0 16,2.5 3,3.5 0 0 0 15.964844,2 L 15,2 Z"
           style="opacity:1;fill:#1b252d;fill-opacity:1;stroke:none;stroke-opacity:1"
           inkscape:connector-curvature="0" />
        <path
           id="path4289"
           transform="translate(384.57143,515.798)"
           d="M 16,3 C 13.11204,3.87795 12.08041,4.10198 9,5 8.05581,8.33925 7.716815,10.870415 8.171875,14.703125 8.125325,14.888145 8.079158,15.092942 8.03125,15.283203 L 8,15 8,15.412109 C 7.8950346,15.831105 7.7895635,16.245058 7.6953125,16.685547 7.4007073,17.339392 7,18.304688 7,19 7,19.752462 7.1403664,20.314433 7.5664062,21.638672 7.6709711,22.091901 7.8028558,22.545239 8,23 8.25,25.02331 8.556775,25.536945 9.734375,26.984375 12.229875,28.419255 13.63464,29.49815 16,30 c 2.08287,-0.36195 4.177004,-1.673894 5.458984,-3.021484 L 22,27 c 1.04511,-1.11809 1.73822,-2.64538 2,-4 1.00001,-4 1.00001,-3 1,-4 -5e-6,-0.531685 -0.266474,-1.834057 -0.53125,-3.009766 -0.154704,-1.023302 -0.38605,-2.062183 -0.679688,-3.199218 L 23.800781,11 23.966797,10.798828 C 23.956187,9.4808482 23.846359,8.7776236 23.605469,7.7148438 L 23.474609,7.2871094 23.121094,7.0898438 C 23.000074,6.1362538 22.764459,5.1942206 22.199219,4.4003906 19.839569,4.4941806 17.48521,3.11857 16,3 Z"
           style="fill:url(#linearGradient4313);fill-opacity:1;fill-rule:evenodd;stroke:none;stroke-width:1px;stroke-linecap:butt;stroke-linejoin:miter;stroke-opacity:1"
           inkscape:connector-curvature="0" />
        <path
           sodipodi:nodetypes="cccccsscccccc"
           inkscape:connector-curvature="0"
           id="path4268"
           d="m 394.57143,538.798 0.6,-0.7 0.3,-0.35 0.15,-0.175 c 0.20493,-0.26325 0.17188,-0.39995 0.17188,-0.625 -0.0101,-0.35894 -0.0204,-0.6764 -0.0324,-0.9654 -0.012,-0.28901 -0.0257,-0.54956 -0.0424,-0.79469 -0.0167,-0.24512 -0.0364,-0.47482 -0.0604,-0.70213 -0.0675,-0.76403 -0.2164,-1.11569 -0.4366,-1.22048 l -0.35,-0.15821 -0.35,-0.1582 -0.35,-0.15819 c 0.24099,1.93782 0.36721,3.94451 0.39992,6.0073 z"
           style="opacity:0.6;fill:#1a1a1a;fill-opacity:1;fill-rule:evenodd;stroke:none;stroke-width:1px;stroke-linecap:butt;stroke-linejoin:miter;stroke-opacity:1" />
        <path
           id="path4270"
           transform="translate(384.57143,515.798)"
           d="m 8.1464844,14.449219 c 0.00814,0.08453 0.014929,0.165793 0.025391,0.253906 -0.04655,0.18502 -0.092717,0.389817 -0.140625,0.580078 L 8,15 8,15.412109 C 7.8950346,15.831105 7.7895635,16.245058 7.6953125,16.685547 7.4007073,17.339392 7,18.304688 7,19 7,19.752462 7.1403664,20.314433 7.5664062,21.638672 7.6709711,22.091901 7.8028558,22.545239 8,23 c 0.033364,0.270026 0.074171,0.468176 0.1132812,0.679688 1.5530497,-4.237856 0.3894729,-8.195084 0.033203,-9.230469 z"
           style="fill:url(#linearGradient4353);fill-opacity:1;fill-rule:evenodd;stroke:none;stroke-width:1px;stroke-linecap:butt;stroke-linejoin:miter;stroke-opacity:1"
           inkscape:connector-curvature="0" />
        <path
           id="path4278"
           transform="translate(384.57143,515.798)"
           d="m 23.912109,13.308594 -0.80664,12.105468 C 23.53337,24.624411 23.847869,23.787223 24,23 c 1.00001,-4 1.00001,-3 1,-4 -5e-6,-0.531685 -0.266474,-1.834057 -0.53125,-3.009766 -0.130337,-0.862126 -0.326084,-1.748018 -0.556641,-2.68164 z"
           style="fill:url(#linearGradient4367);fill-opacity:1;fill-rule:evenodd;stroke:none;stroke-width:1px;stroke-linecap:butt;stroke-linejoin:miter;stroke-opacity:1"
           inkscape:connector-curvature="0" />
        <path
           id="path4283"
           transform="translate(384.57143,515.798)"
           d="m 9,18 -0.1328125,0.396484 c 0.079041,1.550556 -0.056596,3.38043 -0.7539063,5.283204 C 8.0741715,23.468176 8.0333644,23.270026 8,23 8.2267021,24.834755 8.5338502,25.456898 9.4609375,26.630859 9.9503559,23.981213 9.8042646,18.540844 9,18 Z"
           style="fill:url(#linearGradient4339);fill-opacity:1;fill-rule:evenodd;stroke:none;stroke-width:1px;stroke-linecap:butt;stroke-linejoin:miter;stroke-opacity:1"
           inkscape:connector-curvature="0" />
        <path
           id="rect4375"
           transform="translate(384.57143,515.798)"
           d="m 16,3 c -0.105305,0.032013 -0.149442,0.041927 -0.25,0.072266 l 0,12.677734 c 0,0.1385 0.1115,0.25 0.25,0.25 0.1385,0 0.25,-0.1115 0.25,-0.25 l 0,-12.7089844 C 16.167427,3.0282702 16.077914,3.0062202 16,3 Z"
           style="opacity:1;fill:#1b252d;fill-opacity:0.38418082;stroke:none;stroke-opacity:1"
           inkscape:connector-curvature="0" />
        <path
           sodipodi:nodetypes="ccccccc"
           inkscape:connector-curvature="0"
           id="path4261"
           transform="translate(384.57143,515.798)"
           d="m 14.8,12.5 0,1 1.2,0.5 1.2,-0.5 0,-1 L 16,13 Z"
           style="fill:url(#linearGradient4335);fill-opacity:1;fill-rule:evenodd;stroke:none;stroke-width:1px;stroke-linecap:butt;stroke-linejoin:miter;stroke-opacity:1" />
        <path
           style="fill:url(#linearGradient4337);fill-opacity:1;fill-rule:evenodd;stroke:none;stroke-width:1px;stroke-linecap:butt;stroke-linejoin:miter;stroke-opacity:1"
           d="m 399.37143,527.298 0,-1 1.2,-0.5 1.2,0.5 0,1 -1.2,-0.5 z"
           id="path4266"
           inkscape:connector-curvature="0"
           sodipodi:nodetypes="ccccccc" />
        <rect
           ry="0.25"
           y="520.89771"
           x="399.57144"
           height="4"
           width="1.999976"
           id="rect4380"
           style="opacity:1;fill:url(#linearGradient4467);fill-opacity:1;stroke:none;stroke-opacity:1" />
        <path
           id="path4481"
           transform="translate(384.57143,515.798)"
           d="M 23.097656,6.9511719 23,7 c 0.420192,0.8403833 0.657569,2.5616792 0.798828,4.277344 L 23.800781,11 23.966797,10.798828 C 23.956187,9.4808483 23.846359,8.7776235 23.605469,7.7148438 L 23.474609,7.2871094 23.121094,7.0898438 c -0.0059,-0.046551 -0.01696,-0.092191 -0.02344,-0.1386719 z m 0.822266,6.3886721 C 23.982119,14.791155 24,16 24,16 l 0.257812,-1.15625 c -0.09722,-0.486097 -0.211285,-0.989658 -0.33789,-1.503906 z"
           style="fill:url(#linearGradient4483);fill-opacity:1;fill-rule:evenodd;stroke:none;stroke-width:1px;stroke-linecap:butt;stroke-linejoin:miter;stroke-opacity:1"
           inkscape:connector-curvature="0" />
        <path
           style="fill:#83878a;fill-opacity:1;stroke:none"
           d="m 399.57143,538.79797 c -0.1385,0 -0.25,0.1115 -0.25,0.25 0,0.1385 0.1115,0.25 0.25,0.25 0.1385,0 0.25,-0.1115 0.25,-0.25 0,-0.1385 -0.1115,-0.25 -0.25,-0.25 z m 1.75,0 -0.5,0.5 0.75,0.75 -0.25,0.25 -0.25,0.25 -0.25,0.25 0.5,0.5 0.25,-0.25 0.25,-0.25 0.25,-0.25 0.5,-0.5 z m -2.375,1.5 c -0.20775,0 -0.375,0.16725 -0.375,0.375 0,0.20775 0.16725,0.375 0.375,0.375 0.20775,0 0.375,-0.16725 0.375,-0.375 0,-0.20775 -0.16725,-0.375 -0.375,-0.375 z m 1.125,1.5 c -0.277,0 -0.5,0.223 -0.5,0.5 0,0.277 0.223,0.5 0.5,0.5 0.277,0 0.5,-0.223 0.5,-0.5 0,-0.277 -0.223,-0.5 -0.5,-0.5 z"
           id="rect4119"
           inkscape:connector-curvature="0"
           sodipodi:nodetypes="sssssccccccccccccssssssssss" />
      </g>
    </g>
  </g>
</svg>
