<?xml version="1.0" encoding="UTF-8" standalone="no"?>
<!-- Created with Inkscape (http://www.inkscape.org/) -->

<svg
   xmlns:dc="http://purl.org/dc/elements/1.1/"
   xmlns:cc="http://creativecommons.org/ns#"
   xmlns:rdf="http://www.w3.org/1999/02/22-rdf-syntax-ns#"
   xmlns:svg="http://www.w3.org/2000/svg"
   xmlns="http://www.w3.org/2000/svg"
   xmlns:sodipodi="http://sodipodi.sourceforge.net/DTD/sodipodi-0.dtd"
   xmlns:inkscape="http://www.inkscape.org/namespaces/inkscape"
   width="22"
   height="22"
   id="svg3780"
   version="1.1"
   inkscape:version="0.91 r13725"
   sodipodi:docname="pref_associations.svg">
  <defs
     id="defs3782" />
  <sodipodi:namedview
     id="base"
     pagecolor="#ffffff"
     bordercolor="#666666"
     borderopacity="1.0"
     inkscape:pageopacity="0.0"
     inkscape:pageshadow="2"
     inkscape:zoom="19.732846"
     inkscape:cx="2.5150729"
     inkscape:cy="3.9416332"
     inkscape:document-units="px"
     inkscape:current-layer="layer1"
     showgrid="true"
     inkscape:window-width="1920"
     inkscape:window-height="1021"
     inkscape:window-x="-4"
     inkscape:window-y="0"
     inkscape:window-maximized="1"
     inkscape:showpageshadow="false"
     showguides="true"
     inkscape:object-nodes="true"
     inkscape:snap-bbox="true">
    <inkscape:grid
       type="xygrid"
       id="grid3307" />
    <sodipodi:guide
       position="2,20.000017"
       orientation="18,0"
       id="guide3313" />
    <sodipodi:guide
       position="2,2.0000174"
       orientation="0,18"
       id="guide3315" />
    <sodipodi:guide
       position="20,2.0000174"
       orientation="-18,0"
       id="guide3317" />
    <sodipodi:guide
       position="20,20.000017"
       orientation="0,-18"
       id="guide3319" />
    <sodipodi:guide
       position="3,19.000017"
       orientation="16,0"
       id="guide3321" />
    <sodipodi:guide
       position="3,3.0000174"
       orientation="0,16"
       id="guide3323" />
    <sodipodi:guide
       position="19,3.0000174"
       orientation="-16,0"
       id="guide3325" />
    <sodipodi:guide
       position="19,19.000017"
       orientation="0,-16"
       id="guide3327" />
  </sodipodi:namedview>
  <metadata
     id="metadata3785">
    <rdf:RDF>
      <cc:Work
         rdf:about="">
        <dc:format>image/svg+xml</dc:format>
        <dc:type
           rdf:resource="http://purl.org/dc/dcmitype/StillImage" />
        <dc:title></dc:title>
      </cc:Work>
    </rdf:RDF>
  </metadata>
  <g
     inkscape:label="Capa 1"
     inkscape:groupmode="layer"
     id="layer1"
     transform="translate(0,-1030.3622)">
    <path
       style="fill:#f2f2f2;fill-opacity:1;stroke:none"
       d="m 3,1033.3622 0,0.01 0,1 0,13.9922 0,1.0098 10,0 1,0 0,-10.5938 0,-1.4062 0,-0.01 -3.992188,-3.9922 -0.0078,0.01 0,-0.01 -1,0 -5,0 0,-0.01 -1,0 z m 1,1.0078 5,0 0,3 0,1 4,0 0,10 -9,-0.01 0,-13.9922 z"
       id="rect4139"
       inkscape:connector-curvature="0" />
    <path
       style="fill:#f2f2f2;fill-opacity:1;stroke:none"
       d="m 10,1033.37 0,1 4,0 0,3 0,1 4,0 0,10 -8,0 0,0.9922 -5,0 0,0.01 0,0 1,0 12,0 1,0 0,-10.5938 0,-1.4062 0,-0.01 -3.992188,-3.9922 -0.0078,0.01 0,-0.01 -1,0 -4,0 z"
       id="rect4139-6"
       inkscape:connector-curvature="0" />
  </g>
</svg>
