<?xml version="1.0" encoding="UTF-8" standalone="no"?>
<!-- Created with Inkscape (http://www.inkscape.org/) -->

<svg
   xmlns:dc="http://purl.org/dc/elements/1.1/"
   xmlns:cc="http://creativecommons.org/ns#"
   xmlns:rdf="http://www.w3.org/1999/02/22-rdf-syntax-ns#"
   xmlns:svg="http://www.w3.org/2000/svg"
   xmlns="http://www.w3.org/2000/svg"
   xmlns:sodipodi="http://sodipodi.sourceforge.net/DTD/sodipodi-0.dtd"
   xmlns:inkscape="http://www.inkscape.org/namespaces/inkscape"
   width="22"
   height="22"
   id="svg3760"
   version="1.1"
   inkscape:version="0.91 r13725"
   sodipodi:docname="brightness.svg">
  <defs
     id="defs3762" />
  <sodipodi:namedview
     id="base"
     pagecolor="#ffffff"
     bordercolor="#666666"
     borderopacity="1.0"
     inkscape:pageopacity="0.0"
     inkscape:pageshadow="2"
     inkscape:zoom="23.069359"
     inkscape:cx="12.913502"
     inkscape:cy="6.8138188"
     inkscape:document-units="px"
     inkscape:current-layer="layer1"
     showgrid="true"
     fit-margin-top="0"
     fit-margin-left="0"
     fit-margin-right="0"
     fit-margin-bottom="0"
     inkscape:window-width="1920"
     inkscape:window-height="1021"
     inkscape:window-x="-4"
     inkscape:window-y="0"
     inkscape:window-maximized="1"
     inkscape:showpageshadow="false"
     showguides="true"
     inkscape:snap-bbox="true"
     inkscape:object-nodes="true">
    <sodipodi:guide
       position="0,14"
       orientation="22,0"
       id="guide4116" />
    <sodipodi:guide
       position="4.1796875e-06,-2.6953124e-06"
       orientation="0,22"
       id="guide4118" />
    <sodipodi:guide
       position="22.000004,-2.6953124e-06"
       orientation="-22,0"
       id="guide4120" />
    <sodipodi:guide
       position="22.000004,21.999997"
       orientation="0,-22"
       id="guide4122" />
    <sodipodi:guide
       position="19,15"
       orientation="18,0"
       id="guide4124" />
    <sodipodi:guide
       position="3.0000042,18.999997"
       orientation="16,0"
       id="guide4132" />
    <sodipodi:guide
       position="3.0000042,2.9999973"
       orientation="0,16"
       id="guide4134" />
    <sodipodi:guide
       position="19.000004,18.999997"
       orientation="0,-16"
       id="guide4138" />
    <inkscape:grid
       type="xygrid"
       id="grid4140" />
  </sodipodi:namedview>
  <metadata
     id="metadata3765">
    <rdf:RDF>
      <cc:Work
         rdf:about="">
        <dc:format>image/svg+xml</dc:format>
        <dc:type
           rdf:resource="http://purl.org/dc/dcmitype/StillImage" />
        <dc:title></dc:title>
      </cc:Work>
    </rdf:RDF>
  </metadata>
  <g
     inkscape:label="Capa 1"
     inkscape:groupmode="layer"
     id="layer1"
     transform="translate(-553.72253,-583.11926)">
    <rect
       style="fill:#4d4d4d;fill-opacity:1;stroke:none"
       id="rect4035"
       width="0"
       height="10.999983"
       x="516.25439"
       y="587.73975" />
    <rect
       style="fill:#4d4d4d;fill-opacity:1;stroke:none"
       id="rect4035-5"
       width="0"
       height="10.999983"
       x="534.29517"
       y="585.68848" />
    <rect
       style="fill:#4d4d4d;fill-opacity:1;stroke:none"
       id="rect4035-8"
       width="0"
       height="10.999983"
       x="516.25439"
       y="587.73975" />
    <rect
       style="fill:#4d4d4d;fill-opacity:1;stroke:none"
       id="rect4035-59"
       width="0"
       height="10.999983"
       x="516.25439"
       y="587.73975" />
    <rect
       style="fill:#4d4d4d;fill-opacity:1;stroke:none"
       id="rect4035-6"
       width="0"
       height="10.999983"
       x="508.94623"
       y="582.90515" />
    <rect
       style="fill:#4d4d4d;fill-opacity:1;stroke:none"
       id="rect4035-5-1"
       width="0"
       height="10.999983"
       x="526.987"
       y="580.85376" />
    <rect
       style="fill:#4d4d4d;fill-opacity:1;stroke:none"
       id="rect4035-8-3"
       width="0"
       height="10.999983"
       x="508.94623"
       y="582.90515" />
    <rect
       style="fill:#4d4d4d;fill-opacity:1;stroke:none"
       id="rect4035-59-4"
       width="0"
       height="10.999983"
       x="508.94623"
       y="582.90515" />
    <rect
       style="fill:#4d4d4d;fill-opacity:1;stroke:none"
       id="rect4035-1"
       width="0"
       height="10.999983"
       x="514.96136"
       y="587.12134" />
    <rect
       style="fill:#4d4d4d;fill-opacity:1;stroke:none"
       id="rect4035-5-0"
       width="0"
       height="10.999983"
       x="533.00214"
       y="585.07007" />
    <rect
       style="fill:#4d4d4d;fill-opacity:1;stroke:none"
       id="rect4035-8-1"
       width="0"
       height="10.999983"
       x="514.96136"
       y="587.12134" />
    <rect
       style="fill:#4d4d4d;fill-opacity:1;stroke:none"
       id="rect4035-59-1"
       width="0"
       height="10.999983"
       x="514.96136"
       y="587.12134" />
    <rect
       y="587.73975"
       x="516.25439"
       height="10.999983"
       width="0"
       id="rect4035-7"
       style="fill:#4d4d4d;fill-opacity:1;stroke:none" />
    <rect
       y="585.68848"
       x="534.29517"
       height="10.999983"
       width="0"
       id="rect4035-5-7"
       style="fill:#4d4d4d;fill-opacity:1;stroke:none" />
    <rect
       y="587.73975"
       x="516.25439"
       height="10.999983"
       width="0"
       id="rect4035-8-16"
       style="fill:#4d4d4d;fill-opacity:1;stroke:none" />
    <rect
       y="587.73975"
       x="516.25439"
       height="10.999983"
       width="0"
       id="rect4035-59-18"
       style="fill:#4d4d4d;fill-opacity:1;stroke:none" />
    <rect
       y="582.90515"
       x="508.94623"
       height="10.999983"
       width="0"
       id="rect4035-6-5"
       style="fill:#4d4d4d;fill-opacity:1;stroke:none" />
    <rect
       y="580.85376"
       x="526.987"
       height="10.999983"
       width="0"
       id="rect4035-5-1-8"
       style="fill:#4d4d4d;fill-opacity:1;stroke:none" />
    <rect
       y="582.90515"
       x="508.94623"
       height="10.999983"
       width="0"
       id="rect4035-8-3-8"
       style="fill:#4d4d4d;fill-opacity:1;stroke:none" />
    <rect
       y="582.90515"
       x="508.94623"
       height="10.999983"
       width="0"
       id="rect4035-59-4-7"
       style="fill:#4d4d4d;fill-opacity:1;stroke:none" />
    <rect
       y="587.12134"
       x="514.96136"
       height="10.999983"
       width="0"
       id="rect4035-1-7"
       style="fill:#4d4d4d;fill-opacity:1;stroke:none" />
    <rect
       y="585.07007"
       x="533.00214"
       height="10.999983"
       width="0"
       id="rect4035-5-0-8"
       style="fill:#4d4d4d;fill-opacity:1;stroke:none" />
    <rect
       y="587.12134"
       x="514.96136"
       height="10.999983"
       width="0"
       id="rect4035-8-1-0"
       style="fill:#4d4d4d;fill-opacity:1;stroke:none" />
    <rect
       y="587.12134"
       x="514.96136"
       height="10.999983"
       width="0"
       id="rect4035-59-1-3"
       style="fill:#4d4d4d;fill-opacity:1;stroke:none" />
    <rect
       y="591.11926"
       x="513.72253"
       height="10.999983"
       width="0"
       id="rect4035-0"
       style="fill:#4d4d4d;fill-opacity:1;stroke:none" />
    <rect
       y="589.06799"
       x="531.76331"
       height="10.999983"
       width="0"
       id="rect4035-5-5"
       style="fill:#4d4d4d;fill-opacity:1;stroke:none" />
    <rect
       y="591.11926"
       x="513.72253"
       height="10.999983"
       width="0"
       id="rect4035-8-6"
       style="fill:#4d4d4d;fill-opacity:1;stroke:none" />
    <rect
       y="591.11926"
       x="513.72253"
       height="10.999983"
       width="0"
       id="rect4035-59-11"
       style="fill:#4d4d4d;fill-opacity:1;stroke:none" />
    <rect
       y="587.48535"
       x="497.73444"
       height="10.999983"
       width="0"
       id="rect4035-9"
       style="fill:#4d4d4d;fill-opacity:1;stroke:none" />
    <rect
       y="585.43408"
       x="515.77521"
       height="10.999983"
       width="0"
       id="rect4035-5-8"
       style="fill:#4d4d4d;fill-opacity:1;stroke:none" />
    <rect
       y="587.48535"
       x="497.73444"
       height="10.999983"
       width="0"
       id="rect4035-8-0"
       style="fill:#4d4d4d;fill-opacity:1;stroke:none" />
    <rect
       y="587.48535"
       x="497.73444"
       height="10.999983"
       width="0"
       id="rect4035-59-1-8"
       style="fill:#4d4d4d;fill-opacity:1;stroke:none" />
    <path
       style="fill:#4d4d4d;fill-opacity:1;stroke:none"
       d="M 10.5 3 L 10.5 4.8125 L 11.5 4.8125 L 11.5 3 L 10.5 3 z M 5.6875 4.96875 L 4.96875 5.6875 L 6.25 7 L 6.96875 6.25 L 5.6875 4.96875 z M 16.3125 4.96875 L 15.03125 6.25 L 15.75 7 L 17.03125 5.6875 L 16.3125 4.96875 z M 11 6 C 8.23858 6 6 8.2386 6 11 C 6 13.7614 8.23858 16 11 16 C 13.76142 16 16 13.7614 16 11 C 16 8.2386 13.76142 6 11 6 z M 3 10.5 L 3 11.5 L 4.8125 11.5 L 4.8125 10.5 L 3 10.5 z M 17.1875 10.5 L 17.1875 11.5 L 19 11.5 L 19 10.5 L 17.1875 10.5 z M 6.25 15.03125 L 4.96875 16.3125 L 5.6875 17.03125 L 6.96875 15.75 L 6.25 15.03125 z M 15.75 15.03125 L 15.03125 15.75 L 16.3125 17.03125 L 17.03125 16.3125 L 15.75 15.03125 z M 10.5 17.1875 L 10.5 19 L 11.5 19 L 11.5 17.1875 L 10.5 17.1875 z "
       transform="translate(553.72253,583.11926)"
       id="rect4148" />
  </g>
</svg>
